<svg xmlns="http://www.w3.org/2000/svg" viewBox="0 0 809.88 670.25"><defs><style>.cls-1{fill:#fff;}</style></defs><title>Ресурс 2</title><g id="Слой_2" data-name="Слой 2"><g id="Слой_1-2" data-name="Слой 1"><g id="Слой_2-2" data-name="Слой 2"><g id="Слой_1-2-2" data-name="Слой 1-2"><path class="cls-1" d="M647.08,458.22C526,498.84,394.52,435.73,350.49,315.82,309.28,203.3,360.1,76.77,468,24,576-28.87,706.55,8.2,770.51,109.78c66.31,105.31,39.4,245.31-64.28,318.41.56,1.23,1.1,2.55,1.75,3.82l70.67,137.46q13.57,26.4,27,52.85c8.84,17.32,3.59,33.36-13.64,42.4-6.75,3.54-13.58,6.37-21.41,5.31-9.92-1.33-17.64-6.27-22.2-15.13-22.6-43.91-44.94-88-67.51-131.9C669.8,501.33,658.36,479.8,647.08,458.22Zm93.53-223c.14-93-75.45-169-168.44-169.17-93.65-.22-169.68,75.4-169.8,168.88a169.12,169.12,0,1,0,338.24.29Z"/><path class="cls-1" d="M335.89,603.86H638.33c16,0,28.42,8.66,31.29,23.22,4.22,21.39-3.73,37.67-23.44,42.39a32.25,32.25,0,0,1-7.44.59H32.35C15,670.07,2.69,659.18.74,642.4c-2.24-19.26,7-34.17,23.76-37.86a44.24,44.24,0,0,1,9.44-.65Q184.91,603.84,335.89,603.86Z"/><path class="cls-1" d="M173.73,2.21c45.81,0,91.63.49,137.42-.24,18-.29,37.55,11.07,34.71,38.49-1.74,16.81-14.54,28.4-31.56,28.4H33.45C20.33,68.83,9.73,64,4,52c-5.8-12.29-5.54-25,2.16-36.64C12.39,6,21.76,2.29,32.8,2.3H173.73Z"/><path class="cls-1" d="M173.76,402.77h112c8.65,0,17.34.56,25.93-.11,19.13-1.51,37.25,12.2,34.07,38.77-2,16.35-14.3,27.56-30.74,27.56q-141.74.07-283.47,0c-20.2,0-33.06-16-30.88-38,1.67-16.86,14-28.16,31.11-28.19Q102.77,402.7,173.76,402.77Z"/><path class="cls-1" d="M135.26,203.63c33.66,0,67.33.1,101-.05,13.21-.06,23.72,4.8,29.3,16.89,5.76,12.5,5.48,25.39-2.65,37-6,8.65-14.89,12.42-25.41,12.42H86c-17,0-34-.67-51,.18C16.68,271-2.38,258.85.73,231.36c1.9-16.82,14.18-27.69,31.55-27.72Q83.77,203.55,135.26,203.63Z"/></g></g></g></g></svg>